<?xml version="1.0" encoding="UTF-8"?>
<svg id="Layer_1" xmlns="http://www.w3.org/2000/svg" version="1.1" xmlns:xlink="http://www.w3.org/1999/xlink" viewBox="0 0 600 600">
  <!-- Generator: Adobe Illustrator 29.6.0, SVG Export Plug-In . SVG Version: 2.1.1 Build 207)  -->
  <defs>
    <style>
      .st0 {
        fill: #fff;
      }

      .st1 {
        fill: url(#radial-gradient);
      }

      .st2 {
        opacity: .45;
      }

      .st3 {
        opacity: .5;
      }
    </style>
    <radialGradient id="radial-gradient" cx="300" cy="300" fx="300" fy="300" r="300" gradientTransform="translate(0 600) scale(1 -1)" gradientUnits="userSpaceOnUse">
      <stop offset="0" stop-color="#fff" stop-opacity=".2"/>
      <stop offset="1" stop-color="#000" stop-opacity="0"/>
    </radialGradient>
  </defs>
  <g id="Layer_2">
    <rect class="st1" width="600" height="600"/>
  </g>
  <g id="Layer_11" data-name="Layer_1" class="st2">
    <g class="st3">
      <polygon class="st0" points="300 6.5 315.95 189.03 382.69 18.39 346.57 198.02 458.68 53.09 373.41 215.28 521.81 107.8 394.31 239.39 566.98 178.08 407.57 268.42 590.51 258.23 412.11 300 590.51 341.77 407.57 331.58 566.98 421.92 394.31 360.61 521.81 492.2 373.41 384.72 458.68 546.91 346.57 401.98 382.69 581.61 315.95 410.97 300 593.5 284.05 410.97 217.31 581.61 253.43 401.98 141.32 546.91 226.59 384.72 78.19 492.2 205.69 360.61 33.02 421.92 192.43 331.58 9.49 341.77 187.89 300 9.49 258.23 192.43 268.42 33.02 178.08 205.69 239.39 78.19 107.8 226.59 215.28 141.32 53.09 253.43 198.02 217.31 18.39 284.05 189.03 300 6.5"/>
    </g>
  </g>
</svg>